<svg width="15" height="15" viewBox="0 0 15 15" fill="none" xmlns="http://www.w3.org/2000/svg">
<path d="M7.13532 0.0710592C7.05327 0.109155 6.93312 0.199997 6.86866 0.273257C6.63715 0.536993 6.65181 0.22051 6.65181 4.74211V8.77727L5.66426 7.78972C4.60346 6.73185 4.55657 6.69376 4.23716 6.66152C3.90309 6.62636 3.54852 6.83148 3.39614 7.14211C3.31115 7.32086 3.30529 7.66079 3.38148 7.83954C3.45767 8.0095 6.93312 11.4908 7.13532 11.5992C7.25547 11.6608 7.31994 11.6754 7.50162 11.6725C7.64228 11.6725 7.76243 11.6549 7.83862 11.6227C8.00858 11.5494 11.5192 8.03881 11.61 7.85419C11.7009 7.66665 11.698 7.33551 11.6071 7.14211C11.5104 6.94577 11.2848 6.75236 11.0826 6.69376C10.8833 6.63515 10.6313 6.65566 10.4525 6.74357C10.3734 6.78167 9.97488 7.15969 9.34191 7.78972L8.35144 8.77727V4.74211C8.35144 0.22051 8.36609 0.536993 8.13459 0.273257C7.96755 0.0827808 7.77708 0.000729561 7.50162 0.000729561C7.33166 0.000729561 7.24668 0.0183125 7.13532 0.0710592Z" fill="white"/>
<path d="M0.51575 10.0514C0.331135 10.1246 0.158241 10.2887 0.0703295 10.4763C0.0029304 10.6169 0 10.6462 0 11.3437C0 12.1202 0.0263736 12.3517 0.158241 12.7415C0.524541 13.8169 1.36557 14.5964 2.51428 14.9246L2.73992 14.9891L7.3553 14.9979C10.6901 15.0037 12.0351 14.9979 12.2051 14.9744C13.3187 14.8133 14.3443 14.0016 14.7692 12.9437C14.9655 12.4543 14.9831 12.34 14.9978 11.4609C15.0124 10.5408 15.0036 10.4939 14.7751 10.2506C14.4703 9.92537 13.9516 9.90486 13.6117 10.2038C13.3655 10.4206 13.3538 10.4675 13.3304 11.2528C13.3157 11.7744 13.2981 11.9796 13.26 12.1027C13.0842 12.6712 12.6622 13.0873 12.085 13.266C11.9209 13.3158 11.6981 13.3188 7.50182 13.3188C3.30549 13.3188 3.08278 13.3158 2.91868 13.266C2.34139 13.0873 1.91941 12.6712 1.74359 12.1027C1.70549 11.9796 1.68791 11.7744 1.67326 11.2528C1.64981 10.4675 1.63809 10.4206 1.39194 10.2038C1.15458 9.9957 0.81172 9.93709 0.51575 10.0514Z" fill="white"/>
</svg>
