<svg width="27" height="27" viewBox="0 0 27 27" fill="none" xmlns="http://www.w3.org/2000/svg">
<circle cx="13.5" cy="13.5" r="13.5" fill="#D4D4D4" fill-opacity="0.26"/>
<path d="M17.6002 7.17418C17.2642 7.2388 16.9497 7.38095 16.6956 7.58773C16.4263 7.80312 12.7733 11.4777 12.6247 11.6802C12.3683 12.0291 12.181 12.475 12.1142 12.9014C12.0711 13.1664 12.0646 14.5944 12.1056 14.7301C12.14 14.8486 12.2973 15.0166 12.4114 15.0597C12.4933 15.092 12.6053 15.0941 13.385 15.0855C14.2573 15.0791 14.2681 15.0769 14.4878 15.0209C14.9057 14.9132 15.2352 14.7517 15.5583 14.4975C15.7995 14.3101 19.5904 10.5041 19.6874 10.3534C19.808 10.166 19.8941 9.98288 19.9566 9.77826C20.0104 9.60164 20.0148 9.56072 20.0148 9.20101C20.0148 8.84131 20.0104 8.80038 19.9566 8.62376C19.7369 7.91297 19.2135 7.40034 18.5092 7.20864C18.2895 7.14833 17.8285 7.1311 17.6002 7.17418ZM18.2292 8.26837C18.6815 8.38037 19.0003 8.87146 18.927 9.34102C18.8883 9.59733 18.8129 9.71795 18.4898 10.0453L18.199 10.3426L17.5141 9.65764L16.8291 8.9727L17.1177 8.69054C17.3568 8.45791 17.4322 8.3976 17.5636 8.33514C17.7919 8.22744 17.9836 8.20806 18.2292 8.26837ZM16.2109 12.3307C15.5432 12.9984 14.9358 13.5928 14.8583 13.6532C14.6838 13.7867 14.462 13.8944 14.2423 13.9526C14.1066 13.9892 13.9816 13.9999 13.6155 14.0086L13.1567 14.0215V13.7285C13.1567 13.0587 13.245 12.7011 13.497 12.3457C13.5401 12.2854 14.1324 11.678 14.813 10.9931L16.0537 9.75026L16.7365 10.4331L17.4214 11.118L16.2109 12.3307Z" fill="#00A7E3"/>
<path d="M10.26 7.84416C9.92834 7.9174 9.71725 8.03802 9.46309 8.29433C9.23908 8.51834 9.11631 8.73589 9.04308 9.02666C9 9.19252 9 9.27652 9 12.9059C9 16.5352 9 16.6192 9.04308 16.7851C9.1637 17.2654 9.53633 17.6983 9.98434 17.8814C10.288 18.0042 10.1674 17.9999 13.5555 17.9999C17.0772 17.9999 16.8403 18.0107 17.2172 17.8276C17.6587 17.6143 17.9797 17.2072 18.0809 16.7312C18.1175 16.5524 18.124 14.657 18.0874 14.5235C18.0594 14.4201 17.9108 14.2585 17.7987 14.2068C17.6846 14.153 17.4627 14.153 17.3464 14.2068C17.2473 14.2521 17.1353 14.3555 17.0815 14.4545C17.0492 14.5148 17.0427 14.629 17.0341 15.5121C17.0233 16.4986 17.0233 16.5029 16.9738 16.5998C16.9027 16.7355 16.8467 16.7915 16.7218 16.8497L16.6141 16.9014H13.5491C10.9967 16.9014 10.4733 16.8971 10.413 16.8712C10.3053 16.826 10.1825 16.7075 10.133 16.5998C10.0877 16.5029 10.0877 16.4986 10.0813 12.9511C10.0748 8.99005 10.0662 9.25282 10.2234 9.07836C10.2665 9.02882 10.3462 8.96851 10.4 8.94481C10.4948 8.89958 10.5293 8.89958 12.1986 8.88881C14.0854 8.87589 13.9519 8.88666 14.1048 8.73373C14.2103 8.63034 14.2556 8.51403 14.2556 8.35033C14.2556 8.18664 14.2103 8.07032 14.1026 7.96478C13.9432 7.80324 14.0596 7.81186 12.1232 7.81401C10.7554 7.81401 10.3613 7.82047 10.26 7.84416Z" fill="#00A7E3"/>
</svg>
