<svg width="214" height="89" viewBox="0 0 214 89" fill="none" xmlns="http://www.w3.org/2000/svg">
<path d="M7.59967 62.06C7.53171 62.094 7.44111 62.177 7.39958 62.245C7.32407 62.3658 7.32407 62.43 7.32407 65.8466V69.3237H3.84703C0.422836 69.3237 0.366207 69.3237 0.245397 69.3992C-0.00377204 69.554 3.26582e-06 69.5238 3.26582e-06 71.6643C3.26582e-06 73.8049 -0.00377204 73.7747 0.245397 73.9295C0.366207 74.005 0.422836 74.005 3.84703 74.005H7.32407V77.4821C7.32407 80.9063 7.32407 80.9629 7.39958 81.0837C7.55436 81.3329 7.52416 81.3291 9.66475 81.3291C11.8053 81.3291 11.7751 81.3329 11.9299 81.0837C12.0054 80.9629 12.0054 80.9063 12.0054 77.4821V74.005H15.4825C18.9067 74.005 18.9633 74.005 19.0841 73.9295C19.3333 73.7747 19.3295 73.8049 19.3295 71.6643C19.3295 69.5238 19.3333 69.554 19.0841 69.3992C18.9633 69.3237 18.9067 69.3237 15.4825 69.3237H12.0054V65.8466C12.0054 62.4224 12.0054 62.3658 11.9299 62.245C11.7751 61.9958 11.8091 61.9996 9.6572 61.9996C7.95832 61.9996 7.70538 62.0071 7.59967 62.06Z" fill="#00A7E3"/>
<path d="M58.9823 17.6196C55.9637 18.6438 53.3493 21.1233 52.2174 24.0072C51.4358 26.0555 51.1662 32.1196 51.84 33.3864C52.3791 34.4375 53.0259 34.7879 54.3466 34.7879C55.1821 34.7879 55.5863 34.5992 56.2062 33.9524C56.9609 33.1708 56.9878 33.036 57.1226 29.7479L57.2573 26.352L72.6738 39.5314C81.1366 46.7814 88.0902 52.7647 88.0902 52.8456C88.0902 52.9264 81.1366 58.9097 72.6738 66.1597L57.2573 79.3391L57.1226 75.9432C56.9878 72.6551 56.9609 72.5203 56.2062 71.7387C55.5863 71.0919 55.1821 70.9032 54.3466 70.9032C52.0287 70.9032 51.4627 71.9004 51.4627 75.9432C51.4627 79.2313 51.9209 81.3875 52.972 83.1663C53.9962 84.9182 56.5836 87.2091 58.3893 87.9367L59.9525 88.5566H105.366H150.78L152.37 87.802C155.416 86.3735 157.302 84.3791 158.434 81.3336C159 79.7704 159 79.7165 159 52.8456C159 25.9746 159 25.9207 158.434 24.3575C157.275 21.312 155.523 19.3715 152.532 17.97L150.78 17.1345L105.771 17.0806L60.7611 16.9997L58.9823 17.6196ZM148.839 22.5787C148.92 22.7135 139.487 30.9068 127.871 40.852C112.805 53.7619 106.525 58.9906 105.851 59.1523C105.205 59.314 104.719 59.287 104.207 59.0175C103.291 58.5324 61.7044 22.9291 61.7044 22.6326C61.7044 22.3362 148.678 22.3092 148.839 22.5787ZM153.61 52.8456C153.61 66.9952 153.502 78.7192 153.394 78.9079C153.179 79.2313 122.75 53.3846 122.75 52.8456C122.75 52.3335 153.179 26.4598 153.394 26.7832C153.502 26.9719 153.61 38.6959 153.61 52.8456ZM96.7686 60.1764C101.593 64.3809 102.402 64.8391 105.231 64.8391C108.196 64.8391 109.032 64.3809 113.721 60.2842C115.877 58.3976 117.791 56.7805 117.953 56.6997C118.33 56.5379 149.028 82.789 148.839 83.0854C148.678 83.3819 61.7044 83.3549 61.7044 83.0585C61.7044 82.6273 92.2677 56.5918 92.6181 56.7266C92.8067 56.8075 94.6664 58.3707 96.7686 60.1764Z" fill="#00A7E3"/>
<path d="M44.5628 43.655C42.6762 44.787 42.8649 47.59 44.8593 48.4255C45.6679 48.7489 47.3119 48.8028 54.7237 48.7489L63.6447 48.668L64.4263 47.7786C65.6391 46.4041 65.3966 44.4905 63.8603 43.6011C63.1865 43.1968 62.0276 43.1429 54.2385 43.1429C45.9913 43.1429 45.3444 43.1699 44.5628 43.655Z" fill="#00A7E3"/>
<path d="M36.9086 57.0771C36.693 57.158 36.1809 57.5353 35.7766 57.9126C34.456 59.1255 34.8872 61.3894 36.5582 62.2519C36.9625 62.4675 41.0861 62.5483 50.115 62.5483C61.7581 62.5483 63.1866 62.4944 63.8604 62.0902C65.3966 61.2008 65.6392 59.2872 64.4264 57.9126L63.6448 57.0232L50.4654 56.9693C43.2423 56.9424 37.1242 56.9963 36.9086 57.0771Z" fill="#00A7E3"/>
<path d="M181.6 0.0604916C181.532 0.0944691 181.441 0.177525 181.4 0.24548C181.324 0.366289 181.324 0.43047 181.324 3.84711V7.32415H177.847C174.423 7.32415 174.366 7.32415 174.245 7.39966C173.996 7.55445 174 7.52425 174 9.66484C174 11.8054 173.996 11.7752 174.245 11.93C174.366 12.0055 174.423 12.0055 177.847 12.0055H181.324V15.4826C181.324 18.9068 181.324 18.9634 181.4 19.0842C181.554 19.3334 181.524 19.3296 183.665 19.3296C185.805 19.3296 185.775 19.3334 185.93 19.0842C186.005 18.9634 186.005 18.9068 186.005 15.4826V12.0055H189.482C192.907 12.0055 192.963 12.0055 193.084 11.93C193.333 11.7752 193.33 11.8054 193.33 9.66484C193.33 7.52425 193.333 7.55445 193.084 7.39966C192.963 7.32415 192.907 7.32415 189.482 7.32415H186.005V3.84711C186.005 0.422918 186.005 0.366289 185.93 0.24548C185.775 -0.00368881 185.809 8.58307e-05 183.657 8.58307e-05C181.958 8.58307e-05 181.705 0.00763702 181.6 0.0604916Z" fill="#00A7E3"/>
<path d="M202.137 26.6386C202.069 26.6726 201.979 26.7556 201.937 26.8236C201.862 26.9444 201.862 27.0086 201.862 30.4252V33.9023H198.385C194.96 33.9023 194.904 33.9023 194.783 33.9778C194.534 34.1326 194.538 34.1024 194.538 36.243C194.538 38.3836 194.534 38.3534 194.783 38.5081C194.904 38.5836 194.96 38.5836 198.385 38.5836H201.862V42.0607C201.862 45.4849 201.862 45.5415 201.937 45.6623C202.092 45.9115 202.062 45.9077 204.202 45.9077C206.343 45.9077 206.313 45.9115 206.468 45.6623C206.543 45.5415 206.543 45.4849 206.543 42.0607V38.5836H210.02C213.444 38.5836 213.501 38.5836 213.622 38.5081C213.871 38.3534 213.867 38.3836 213.867 36.243C213.867 34.1024 213.871 34.1326 213.622 33.9778C213.501 33.9023 213.444 33.9023 210.02 33.9023H206.543V30.4252C206.543 27.001 206.543 26.9444 206.468 26.8236C206.313 26.5744 206.347 26.5782 204.195 26.5782C202.496 26.5782 202.243 26.5858 202.137 26.6386Z" fill="#00A7E3"/>
</svg>
