<svg width="15" height="10" viewBox="0 0 15 10" fill="none" xmlns="http://www.w3.org/2000/svg">
<path d="M0.0196705 9.53033C0.0783792 9.70646 0.219279 9.86497 0.395404 9.95303C0.479553 9.99413 0.520649 10 0.698731 10C0.886598 10 0.913995 9.99609 1.01184 9.94521C1.09991 9.89824 1.5363 9.47162 3.34452 7.66536C5.19384 5.818 5.58131 5.42074 5.63415 5.3229C5.69482 5.21135 5.69873 5.19569 5.69873 5C5.69873 4.80431 5.69482 4.78865 5.63415 4.6771C5.58131 4.5773 5.1958 4.18395 3.33474 2.32681C1.56174 0.555773 1.08034 0.0861053 1.00206 0.0469666C0.917909 0.00587082 0.876813 0 0.698731 0C0.510864 0 0.483467 0.00587082 0.381706 0.0567513C0.246676 0.125245 0.133173 0.238748 0.0588093 0.381605C0.00988579 0.479452 0.00401497 0.508806 0.00401497 0.684932C0.00401497 1.0274 -0.166239 0.831702 2.04707 3.04697L3.99619 5L2.04707 6.95108C-0.140799 9.14481 0.00988579 8.97065 0.000101089 9.28571C-0.00185585 9.38356 0.00597191 9.48337 0.0196705 9.53033Z" fill="#00A7E3"/>
<path d="M9.01967 9.53033C9.07838 9.70646 9.21928 9.86497 9.3954 9.95303C9.47955 9.99413 9.52065 10 9.69873 10C9.8866 10 9.914 9.99609 10.0118 9.94521C10.0999 9.89824 10.5363 9.47162 12.3445 7.66536C14.1938 5.818 14.5813 5.42074 14.6342 5.3229C14.6948 5.21135 14.6987 5.19569 14.6987 5C14.6987 4.80431 14.6948 4.78865 14.6342 4.6771C14.5813 4.5773 14.1958 4.18395 12.3347 2.32681C10.5617 0.555773 10.0803 0.0861053 10.0021 0.0469666C9.91791 0.00587082 9.87681 0 9.69873 0C9.51086 0 9.48347 0.00587082 9.38171 0.0567513C9.24668 0.125245 9.13317 0.238748 9.05881 0.381605C9.00989 0.479452 9.00401 0.508806 9.00401 0.684932C9.00401 1.0274 8.83376 0.831702 11.0471 3.04697L12.9962 5L11.0471 6.95108C8.8592 9.14481 9.00989 8.97065 9.0001 9.28571C8.99814 9.38356 9.00597 9.48337 9.01967 9.53033Z" fill="#00A7E3"/>
</svg>
