<svg width="15" height="10" viewBox="0 0 15 10" fill="none" xmlns="http://www.w3.org/2000/svg">
<path d="M14.6791 9.53033C14.6204 9.70646 14.4795 9.86497 14.3033 9.95303C14.2192 9.99413 14.1781 10 14 10C13.8121 10 13.7847 9.99609 13.6869 9.94521C13.5988 9.89824 13.1624 9.47162 11.3542 7.66536C9.50489 5.818 9.11742 5.42074 9.06458 5.3229C9.00391 5.21135 9 5.19569 9 5C9 4.80431 9.00391 4.78865 9.06458 4.6771C9.11742 4.5773 9.50294 4.18395 11.364 2.32681C13.137 0.555773 13.6184 0.0861053 13.6967 0.0469666C13.7808 0.00587082 13.8219 0 14 0C14.1879 0 14.2153 0.00587082 14.317 0.0567513C14.4521 0.125245 14.5656 0.238748 14.6399 0.381605C14.6888 0.479452 14.6947 0.508806 14.6947 0.684932C14.6947 1.0274 14.865 0.831702 12.6517 3.04697L10.7025 5L12.6517 6.95108C14.8395 9.14481 14.6888 8.97065 14.6986 9.28571C14.7006 9.38356 14.6928 9.48337 14.6791 9.53033Z" fill="#00A7E3"/>
<path d="M5.67906 9.53033C5.62035 9.70646 5.47945 9.86497 5.30333 9.95303C5.21918 9.99413 5.17808 10 5 10C4.81213 10 4.78474 9.99609 4.68689 9.94521C4.59883 9.89824 4.16243 9.47162 2.35421 7.66536C0.504892 5.818 0.117417 5.42074 0.0645792 5.3229C0.00391389 5.21135 0 5.19569 0 5C0 4.80431 0.00391389 4.78865 0.0645792 4.6771C0.117417 4.5773 0.502935 4.18395 2.36399 2.32681C4.13699 0.555773 4.61839 0.0861053 4.69667 0.0469666C4.78082 0.00587082 4.82192 0 5 0C5.18787 0 5.21526 0.00587082 5.31702 0.0567513C5.45205 0.125245 5.56556 0.238748 5.63992 0.381605C5.68884 0.479452 5.69472 0.508806 5.69472 0.684932C5.69472 1.0274 5.86497 0.831702 3.65166 3.04697L1.70254 5L3.65166 6.95108C5.83953 9.14481 5.68884 8.97065 5.69863 9.28571C5.70059 9.38356 5.69276 9.48337 5.67906 9.53033Z" fill="#00A7E3"/>
</svg>
