<svg width="15" height="12" viewBox="0 0 15 12" fill="none" xmlns="http://www.w3.org/2000/svg">
<path d="M2.3877 1.03024C2.22949 1.10055 2.22656 1.11227 2.22656 2.54489C2.22656 4.02438 2.22364 4.00973 2.42578 4.06247C2.49903 4.08298 4.03125 4.09469 7.11328 4.09469C12.0234 4.09469 11.8418 4.10055 11.9209 3.95407C11.9648 3.86911 11.9648 1.21481 11.9209 1.12985C11.8418 0.983366 12.0264 0.989226 7.08399 0.989226C3.33692 0.992155 2.45801 0.998015 2.3877 1.03024ZM11.4258 2.54196V3.56735H7.08985H2.75391V2.54196V1.51657H7.08985H11.4258V2.54196Z" fill="#666262"/>
<path d="M0.996094 1.34375C0.890625 1.42578 0.802734 1.50195 0.796875 1.51367C0.793945 1.52539 0.881836 1.66016 0.996094 1.8125L1.2041 2.08789L0.65918 2.10254C0.128906 2.11719 0.111328 2.12012 0.0556641 2.1875C0.00292969 2.25195 0 2.33691 0 4.60742C0 5.90234 0.00878906 6.9834 0.0175781 7.00977C0.0673828 7.13867 0.102539 7.1416 1.97754 7.1416H3.75V6.87793V6.61426H2.13867H0.527344V4.62207V2.62988H0.864258C1.04883 2.62988 1.20117 2.63281 1.20117 2.63867C1.20117 2.64453 1.11035 2.77344 0.996094 2.92285C0.884766 3.07227 0.791016 3.20703 0.791016 3.21875C0.791016 3.24512 1.19824 3.5498 1.21289 3.53516C1.21875 3.5293 1.40332 3.28027 1.62598 2.98438C1.99805 2.48633 2.02734 2.43652 2.0127 2.34277C2.00098 2.27832 1.86621 2.07324 1.60547 1.72168C1.3916 1.43164 1.20996 1.19727 1.20117 1.19727C1.19238 1.19727 1.10156 1.26465 0.996094 1.34375Z" fill="#666262"/>
<path d="M4.32129 5.16406L4.24805 5.23438V6.62305C4.24805 7.9502 4.25098 8.01758 4.30371 8.08203L4.35938 8.15234H9.62402H14.8887L14.9443 8.08203C14.9971 8.01758 15 7.9502 15 6.61426V5.21094L14.9238 5.15234L14.8447 5.09082H9.61816H4.3916L4.32129 5.16406ZM14.4727 6.62891V7.63965H9.62402H4.77539V6.62891V5.61816H9.62402H14.4727V6.62891Z" fill="#666262"/>
<path d="M2.41114 8.9305C2.22656 8.98324 2.22656 8.98617 2.22656 10.451C2.22656 11.9334 2.22364 11.9159 2.42578 11.9744C2.50196 11.9979 4.11914 12.0037 7.9336 11.9979L13.3359 11.9891L13.4063 11.9071L13.4766 11.825V10.451V9.07699L13.4063 8.99496L13.3359 8.91293L7.91895 8.90707C4.6084 8.90414 2.4668 8.91293 2.41114 8.9305ZM12.9492 10.451V11.4764H7.85156H2.75391V10.451V9.42562H7.85156H12.9492V10.451Z" fill="#666262"/>
</svg>
