<svg width="13" height="14" viewBox="0 0 13 14" fill="none" xmlns="http://www.w3.org/2000/svg">
<path d="M1.58039 0.0313025C1.18784 0.117969 0.889604 0.286203 0.583723 0.589535C0.326273 0.846985 0.186078 1.06875 0.0688233 1.40777L0 1.61169V6.51853V11.4254L0.0688233 11.6293C0.186078 11.9658 0.326273 12.1901 0.583723 12.4475C0.841173 12.705 1.06549 12.8452 1.40196 12.9624L1.60588 13.0312H4.58822H7.57056L7.77448 12.9624C8.11095 12.8452 8.33526 12.705 8.59271 12.4475C8.85271 12.1875 8.99291 11.9632 9.10506 11.6293C9.17388 11.4279 9.17388 11.4126 9.18408 10.6403C9.19173 9.87558 9.19173 9.85264 9.1382 9.74048C9.10251 9.66911 9.04134 9.59773 8.97761 9.55695C8.8884 9.49832 8.84761 9.48813 8.67938 9.48813C8.51114 9.48813 8.47036 9.49832 8.38114 9.55695C8.31997 9.59773 8.25624 9.66911 8.2231 9.73538C8.17467 9.83989 8.16957 9.89087 8.16957 10.3956C8.16957 10.6964 8.15683 11.0201 8.14408 11.1195C8.07781 11.5834 7.7286 11.9326 7.26468 11.9989C7.02507 12.032 2.15136 12.032 1.91176 11.9989C1.44784 11.9326 1.09862 11.5834 1.03235 11.1195C0.999212 10.8748 0.999212 2.16227 1.03235 1.91757C1.09862 1.45365 1.44784 1.10443 1.91176 1.03816C2.15136 1.00502 7.02507 1.00502 7.26468 1.03816C7.7286 1.10443 8.07781 1.45365 8.14408 1.91757C8.15683 2.01443 8.16957 2.3407 8.16957 2.64149C8.16957 3.14619 8.17467 3.19717 8.2231 3.30168C8.25624 3.36796 8.31997 3.43933 8.38114 3.48011C8.47036 3.53874 8.51114 3.54893 8.67938 3.54893C8.84761 3.54893 8.8884 3.53874 8.97761 3.48011C9.04134 3.43933 9.10251 3.36796 9.1382 3.29658C9.19173 3.18443 9.19173 3.16149 9.18408 2.39678C9.17388 1.62443 9.17388 1.60914 9.10506 1.40777C8.99291 1.07385 8.85271 0.849534 8.59271 0.589535C8.33526 0.332086 8.11095 0.19189 7.77448 0.0746355L7.57056 0.00581169L4.65194 0.000714302C2.3043 -0.00183487 1.70274 0.00326252 1.58039 0.0313025Z" fill="#666262"/>
<path d="M10.9353 4.39493C10.6855 4.52493 10.5784 4.80787 10.6804 5.06022C10.7059 5.11885 10.8843 5.31767 11.1596 5.59297L11.598 6.03394H8.47804H5.3555L5.24335 6.08747C5.17707 6.12061 5.1057 6.18434 5.06492 6.24551C5.00629 6.33473 4.99609 6.37551 4.99609 6.54375C4.99609 6.71198 5.00629 6.75277 5.06492 6.84198C5.1057 6.90316 5.17707 6.96688 5.24335 7.00002L5.3555 7.05355H8.47804H11.598L11.1596 7.49198C10.8843 7.76982 10.7059 7.96864 10.6804 8.02727C10.6065 8.20825 10.6472 8.44021 10.7772 8.57786C10.9225 8.73589 11.2106 8.78433 11.4018 8.68746C11.4527 8.65942 11.7943 8.3357 12.1614 7.96609C12.7476 7.37472 12.8368 7.27531 12.9133 7.11727L13 6.93884V6.54375V6.14865L12.9133 5.97022C12.8368 5.81218 12.7476 5.71277 12.1614 5.1214C11.7943 4.75179 11.4527 4.42807 11.4018 4.40003C11.2845 4.33885 11.0449 4.3363 10.9353 4.39493Z" fill="#666262"/>
</svg>
