<svg width="13" height="13" viewBox="0 0 13 13" fill="none" xmlns="http://www.w3.org/2000/svg">
<path d="M3.16661 0.0287657C3.12703 0.042902 3.06483 0.0853119 3.0309 0.11924C2.90932 0.232333 2.88388 0.317153 2.88388 0.619678V0.902411H2.50502C2.29297 0.902411 2.01871 0.922202 1.88018 0.94482C0.949983 1.10881 0.206395 1.85239 0.04241 2.78259C0.00565466 2.99746 0 3.54031 0 6.79457C0 9.16953 0.0113093 10.6313 0.0282733 10.7557C0.163985 11.6887 0.887782 12.4549 1.81797 12.6471C2.00175 12.6867 2.32124 12.6924 4.03743 12.6924H6.04201L6.13814 12.6274C6.18903 12.5934 6.26254 12.5199 6.29929 12.4662C6.35584 12.3842 6.36432 12.3418 6.35584 12.2033C6.3417 12.0082 6.2795 11.912 6.10704 11.8216L5.98263 11.7594H4.04308C1.9763 11.7594 1.98479 11.7594 1.68509 11.618C1.49 11.5247 1.21293 11.2561 1.10831 11.0582C0.927365 10.7161 0.933019 10.9027 0.933019 6.80588C0.933019 4.19625 0.941501 3.03705 0.96412 2.93244C1.07439 2.40655 1.50414 1.9768 2.03002 1.86653C2.11202 1.84957 2.3382 1.83543 2.53046 1.83543H2.88388V2.13513C2.88388 2.39241 2.89236 2.45179 2.94325 2.53378C3.06483 2.73169 3.36452 2.79955 3.57092 2.67515C3.75752 2.56205 3.78862 2.48572 3.78862 2.13795V1.83543H5.89499H8.00135V2.12947C8.00135 2.45744 8.0381 2.55075 8.22753 2.67797C8.30953 2.73452 8.35194 2.743 8.49048 2.73452C8.80431 2.7119 8.93437 2.5253 8.93437 2.09837V1.83543H9.28213C9.48852 1.83543 9.69775 1.85239 9.80801 1.87784C10.2717 1.98811 10.6392 2.33021 10.8089 2.81086C10.8259 2.86175 10.8456 3.30282 10.8541 3.87676C10.8711 4.81261 10.8739 4.86067 10.9305 4.93701C11.0379 5.08121 11.1595 5.14341 11.3348 5.14341C11.5242 5.14341 11.6288 5.08403 11.7249 4.9257C11.79 4.81826 11.79 4.80978 11.79 3.87676C11.79 2.8561 11.773 2.6808 11.6288 2.32173C11.4648 1.9146 11.1086 1.4905 10.7297 1.25583C10.3311 1.00419 9.9098 0.902411 9.29909 0.902411H8.93437V0.639469C8.93437 0.308671 8.87217 0.164477 8.67991 0.0626936C8.52723 -0.0192995 8.41414 -0.0192995 8.25581 0.059866C8.04941 0.167305 8.01831 0.235161 8.007 0.594232L7.99569 0.902411H5.89216H3.78862V0.608368C3.78862 0.291707 3.7547 0.198405 3.58506 0.0740023C3.49741 0.00897408 3.27122 -0.0164719 3.16661 0.0287657Z" fill="#666262"/>
<path d="M2.66256 4.88045C2.51268 4.95398 2.43066 5.09821 2.43066 5.28769C2.43066 5.46303 2.49288 5.58463 2.63711 5.6921C2.71347 5.74866 2.75306 5.75149 3.75419 5.75997C4.43292 5.76563 4.82885 5.75715 4.89389 5.74018C5.02681 5.70058 5.18801 5.52242 5.21346 5.3895C5.23608 5.26507 5.19366 5.09256 5.11731 4.9964C4.99287 4.8352 4.96176 4.83238 3.81075 4.83238C2.89164 4.83238 2.74458 4.84086 2.66256 4.88045Z" fill="#666262"/>
<path d="M9.75384 6.09391C9.16293 6.24659 8.64553 6.75551 8.46458 7.36338C8.3939 7.59805 8.3939 8.11828 8.46458 8.35295C8.64553 8.96083 9.16859 9.47257 9.75384 9.62242L9.90935 9.662L9.79625 9.6818C9.55027 9.72138 9.16576 9.84578 8.95088 9.95039C8.22708 10.3038 7.6079 11.0474 7.46088 11.7344C7.35909 12.2038 7.64748 12.741 8.09985 12.9219L8.26949 12.9898L10.0507 12.9983C11.176 13.0039 11.9139 12.9954 12.0525 12.9785C12.5501 12.9106 12.8922 12.5883 12.9827 12.102C13.0646 11.6666 12.7678 11.0135 12.256 10.4989C11.8121 10.055 11.3456 9.81751 10.6303 9.67897L10.5314 9.65918L10.6869 9.62242C11.2665 9.4754 11.7669 9.00606 11.9592 8.42363C12.0412 8.172 12.0638 7.74225 12.0072 7.47082C11.8659 6.81205 11.3315 6.2579 10.6727 6.09108C10.4607 6.03736 9.96307 6.03736 9.75384 6.09391ZM10.5823 7.04672C10.7264 7.10892 10.9328 7.30966 11.0205 7.47648C11.0855 7.59805 11.0968 7.65177 11.0968 7.85817C11.0968 8.06456 11.0855 8.11828 11.0205 8.24268C10.9215 8.43211 10.6953 8.63285 10.5172 8.69223C10.079 8.83925 9.59834 8.62437 9.40608 8.2031C9.32409 8.01932 9.32409 7.69701 9.40608 7.51606C9.60965 7.06369 10.1271 6.85729 10.5823 7.04672ZM10.8537 10.6996C11.3513 10.8806 11.733 11.2142 11.9535 11.6609C12.0779 11.9154 12.0836 11.9465 12.0185 12.0115C11.9592 12.0709 11.9365 12.0709 10.226 12.0709C8.14226 12.0709 8.26949 12.0992 8.47023 11.6949C8.71904 11.2029 9.13466 10.8467 9.66337 10.6714C9.99982 10.5611 10.5031 10.5752 10.8537 10.6996Z" fill="#666262"/>
<path d="M2.71347 7.26778C2.5353 7.33848 2.43066 7.50816 2.43066 7.72026C2.43066 7.90409 2.50985 8.037 2.65974 8.11336C2.76437 8.16709 2.83225 8.16992 4.40464 8.16992H6.04208L6.13823 8.10488C6.18914 8.07094 6.26267 7.99741 6.29943 7.94368C6.35599 7.86166 6.36447 7.81924 6.35599 7.68067C6.34185 7.48553 6.27963 7.38938 6.10712 7.29888L5.98269 7.23667L4.38202 7.2395C3.3922 7.2395 2.75872 7.25081 2.71347 7.26778Z" fill="#666262"/>
</svg>
