<svg width="14" height="10" viewBox="0 0 14 10" fill="none" xmlns="http://www.w3.org/2000/svg">
<path d="M1.2216 0.0459728C0.662352 0.202188 0.193707 0.673958 0.0468645 1.23633C-0.0156215 1.46753 -0.0156215 8.5347 0.0468645 8.7659C0.196831 9.3314 0.637358 9.77817 1.21848 9.95001C1.37157 9.99375 1.93082 10 7.01094 10H12.6284L12.8659 9.92189C13.3908 9.74381 13.7438 9.38764 13.9219 8.86275L14 8.62843V5.01049C14 2.09552 13.9906 1.3613 13.9563 1.23633C13.8063 0.667709 13.3345 0.195939 12.7659 0.0459728C12.5441 -0.0133886 1.43405 -0.0133886 1.2216 0.0459728ZM12.6784 0.758314C12.919 0.848919 13.1533 1.08324 13.2439 1.32381L13.3127 1.50502V5.00112V8.49721L13.2439 8.67842C13.1533 8.91899 12.919 9.15331 12.6784 9.24392L12.4972 9.31265H7.00156H1.50591L1.3247 9.24392C1.08413 9.15331 0.84981 8.91899 0.759206 8.67842L0.690471 8.49721V5.00112V1.50502L0.759206 1.32381C0.846686 1.08637 1.08413 0.848919 1.31533 0.758314L1.48717 0.692703H6.99219L12.4972 0.689579L12.6784 0.758314Z" fill="white"/>
<path d="M2.76443 2.76458C2.67695 2.85206 2.6582 2.8958 2.6582 3.00203C2.6582 3.10826 2.67695 3.152 2.76443 3.23948L2.87066 3.3457H3.6736H4.47655L4.56403 3.2551C4.72649 3.09576 4.72649 2.9083 4.56403 2.74896L4.47655 2.65836H3.6736H2.87066L2.76443 2.76458Z" fill="white"/>
<path d="M2.76443 4.76361C2.67695 4.85109 2.6582 4.89483 2.6582 5.00105C2.6582 5.10728 2.67695 5.15102 2.76443 5.2385L2.87066 5.34473H7.00098H11.1313L11.2375 5.2385C11.325 5.15102 11.3438 5.10728 11.3438 5.00105C11.3438 4.89483 11.325 4.85109 11.2375 4.76361L11.1313 4.65738H7.00098H2.87066L2.76443 4.76361Z" fill="white"/>
<path d="M2.76443 6.76263C2.67695 6.85011 2.6582 6.89385 2.6582 7.00008C2.6582 7.1063 2.67695 7.15004 2.76443 7.23752L2.87066 7.34375H5.67315H8.47565L8.56313 7.25315C8.7256 7.09381 8.7256 6.90635 8.56313 6.74701L8.47565 6.6564H5.67315H2.87066L2.76443 6.76263Z" fill="white"/>
</svg>
