<svg width="9" height="9" viewBox="0 0 9 9" fill="none" xmlns="http://www.w3.org/2000/svg">
<path d="M4.23757 0.0246572C4.02622 0.103913 3.87299 0.243052 3.7726 0.447358L3.71624 0.563601L3.71096 2.13464L3.70744 3.70744L2.13464 3.71096L0.563601 3.71624L0.440313 3.77612C0.278278 3.85538 0.139139 3.99452 0.0598826 4.15656C0.00176125 4.27632 0 4.28513 0 4.5C0 4.71487 0.00176125 4.72368 0.0598826 4.84344C0.139139 5.00548 0.278278 5.14462 0.440313 5.22387L0.563601 5.28376L2.13464 5.28904L3.70744 5.29256L3.71096 6.86536L3.71624 8.4364L3.77613 8.55969C3.85538 8.72172 3.99452 8.86086 4.15656 8.94012C4.27632 8.99824 4.28513 9 4.5 9C4.71487 9 4.72368 8.99824 4.84344 8.94012C5.00548 8.86086 5.14462 8.72172 5.22387 8.55969L5.28376 8.4364L5.28904 6.86536L5.29256 5.29256L6.86536 5.28904L8.4364 5.28376L8.55969 5.22387C8.72172 5.14462 8.86086 5.00548 8.94012 4.84344C8.99824 4.72368 9 4.71487 9 4.5C9 4.28513 8.99824 4.27632 8.94012 4.15656C8.86086 3.99452 8.72172 3.85538 8.55969 3.77612L8.4364 3.71624L6.86536 3.71096L5.29256 3.70744L5.28904 2.13464L5.28376 0.563601L5.22387 0.440312C5.14462 0.278277 5.00548 0.139138 4.84344 0.0616436C4.72896 0.00528336 4.70431 0 4.52642 -0.00352287C4.36791 -0.00880623 4.31507 -0.00352287 4.23757 0.0246572Z" fill="#00A7E3"/>
</svg>
