<svg width="15" height="15" viewBox="0 0 15 15" fill="none" xmlns="http://www.w3.org/2000/svg">
<path d="M6.246 0.0923252C4.65059 0.421896 3.25365 1.52046 2.76511 2.83264C2.57427 3.3392 2.57427 4.46219 2.76511 4.96875C3.25365 6.28093 4.66586 7.3856 6.246 7.70906L6.66584 7.79451L6.3605 7.83723C5.69638 7.92267 4.65822 8.19121 4.07807 8.41703C2.12389 9.17993 0.452148 10.7851 0.055205 12.2681C-0.219602 13.2812 0.559018 14.4408 1.78038 14.8314L2.23839 14.9779L7.04752 14.9962C10.0857 15.0084 12.078 14.9901 12.4521 14.9535C13.7956 14.807 14.7192 14.1113 14.9635 13.0615C15.1849 12.1216 14.3833 10.7118 13.0017 9.60104C11.8032 8.64285 10.5437 8.13018 8.61239 7.83113L8.34522 7.78841L8.76506 7.70906C10.3299 7.3917 11.6811 6.37858 12.2001 5.12133C12.4215 4.57814 12.4826 3.65046 12.3299 3.06456C11.9482 1.64253 10.5055 0.446308 8.72689 0.0862217C8.15438 -0.0297383 6.81088 -0.0297379 6.246 0.0923252ZM8.48262 2.14909C8.87193 2.28336 9.42918 2.71668 9.66582 3.07677C9.84139 3.3392 9.87192 3.45516 9.87192 3.90069C9.87192 4.34623 9.84139 4.46219 9.66582 4.73072C9.39864 5.13964 8.78796 5.57296 8.30705 5.70113C7.12385 6.01849 5.82615 5.55465 5.30707 4.64528C5.0857 4.24857 5.0857 3.55281 5.30707 3.16221C5.85669 2.18571 7.25362 1.74018 8.48262 2.14909ZM9.21544 10.0344C10.5589 10.425 11.5895 11.1451 12.1849 12.1094C12.5208 12.6587 12.536 12.7259 12.3605 12.8662C12.2001 12.9944 12.1391 12.9944 7.5208 12.9944C1.89489 12.9944 2.23839 13.0554 2.78037 12.1827C3.45213 11.1207 4.57425 10.3517 6.00172 9.97334C6.91011 9.73531 8.26888 9.76583 9.21544 10.0344Z" fill="#7E7C7C"/>
</svg>
