<svg width="27" height="27" viewBox="0 0 27 27" fill="none" xmlns="http://www.w3.org/2000/svg">
<circle cx="13.5" cy="13.5" r="13.5" fill="#D4D4D4" fill-opacity="0.26"/>
<path d="M12.1577 8.04244C11.6329 8.15469 11.1839 8.56457 11.022 9.07626C10.962 9.26423 10.9568 9.32428 10.9568 9.76548V10.2458H10.1135H9.27288L9.17889 10.3085C9.00398 10.4286 8.94915 10.6714 9.05097 10.8698C9.12146 11.0082 9.24416 11.0813 9.41124 11.0813H9.547L9.55483 14.7937C9.56266 18.9551 9.54439 18.5817 9.75846 19.0177C9.84461 19.1953 9.9151 19.2866 10.0926 19.4642C10.2832 19.6547 10.3563 19.707 10.5652 19.8088C10.7009 19.874 10.8784 19.9419 10.9568 19.9628C11.1682 20.0124 16.5932 20.0124 16.8047 19.9628C16.883 19.9419 17.0605 19.874 17.1963 19.8088C17.6453 19.5947 17.9978 19.1692 18.157 18.6522C18.1962 18.5217 18.2014 18.1954 18.2066 14.7937L18.2145 11.0813H18.3528C18.5147 11.0813 18.6165 11.0238 18.7026 10.8802C18.8175 10.6897 18.7549 10.4129 18.5721 10.3007C18.486 10.2485 18.4494 10.2458 17.6427 10.2458H16.8047V9.76548C16.8047 9.32428 16.7995 9.26423 16.7394 9.07626C16.5749 8.55935 16.1259 8.15208 15.5907 8.03982C15.3297 7.985 12.4135 7.98761 12.1577 8.04244ZM15.4732 8.90396C15.6429 8.95356 15.8622 9.15981 15.9144 9.31906C15.9327 9.37649 15.9536 9.60884 15.9614 9.83336L15.9771 10.2458H13.8807H11.7843L11.8 9.83336C11.8078 9.60884 11.8287 9.37649 11.847 9.31906C11.8966 9.16764 12.1185 8.95356 12.2778 8.90396C12.4736 8.84391 15.2696 8.84391 15.4732 8.90396ZM17.3477 14.7284L17.3399 18.3781L17.2772 18.5348C17.1911 18.7488 16.9535 18.9864 16.7394 19.0726L16.5828 19.1352H13.8807H11.1787L11.022 19.0726C10.808 18.9864 10.5704 18.7488 10.4842 18.5348L10.4216 18.3781L10.4137 14.7284L10.4085 11.0813H13.8807H17.3529L17.3477 14.7284Z" fill="#00A7E3"/>
<path d="M12.3017 12.7776C12.2286 12.8063 12.1138 12.9342 12.0824 13.0204C12.0615 13.07 12.0537 13.754 12.0537 15.1246V17.1557L12.1138 17.268C12.1816 17.3985 12.3487 17.5029 12.4819 17.5029C12.5915 17.5029 12.7821 17.4037 12.8474 17.3124C12.9022 17.2393 12.9022 17.2105 12.91 15.1507C12.9152 13.1144 12.9152 13.0622 12.863 12.963C12.7925 12.8194 12.6698 12.7515 12.4949 12.7541C12.4166 12.7541 12.3304 12.7645 12.3017 12.7776Z" fill="#00A7E3"/>
<path d="M15.0267 12.8141C14.8361 12.9447 14.8439 12.8194 14.8517 15.1507C14.8596 17.2105 14.8596 17.2393 14.9144 17.3124C14.9797 17.4037 15.1702 17.5029 15.2799 17.5029C15.413 17.5029 15.5801 17.3985 15.648 17.268L15.708 17.1531L15.7028 15.0854C15.695 13.0334 15.695 13.0152 15.6402 12.9421C15.541 12.8089 15.4287 12.7515 15.2668 12.7515C15.1546 12.7515 15.0971 12.7672 15.0267 12.8141Z" fill="#00A7E3"/>
</svg>
