<svg width="14" height="13" viewBox="0 0 14 13" fill="none" xmlns="http://www.w3.org/2000/svg">
<path d="M4.75311 0.0300055C3.52212 0.168781 2.42476 0.693048 1.56126 1.55655C0.72346 2.39434 0.196624 3.44545 0.039858 4.59678C-0.0115406 4.96941 -0.0141105 5.70956 0.0372881 6.06678C0.165785 6.97396 0.523005 7.82461 1.08068 8.56475C1.28628 8.83716 1.80026 9.35115 2.07267 9.55675C2.72801 10.0527 3.46301 10.3894 4.23913 10.5487C5.58834 10.8263 7.0532 10.5539 8.19939 9.81117L8.33817 9.72122L9.88013 11.2555C11.5686 12.9336 11.5506 12.9208 11.9155 12.985C12.3884 13.0647 12.8587 12.8206 13.0617 12.3888C13.2005 12.0958 13.1902 11.6924 13.0334 11.4122C12.9949 11.3403 12.391 10.7158 11.4015 9.72636L9.83387 8.15356L9.92896 7.9968C10.2605 7.45197 10.5226 6.65272 10.6126 5.91258C10.6485 5.60419 10.6434 5.02338 10.6023 4.67901C10.4224 3.24499 9.68225 1.95745 8.53606 1.08625C7.47724 0.279288 6.06121 -0.116481 4.75311 0.0300055ZM5.71684 1.77756C6.98382 1.92918 8.05548 2.71301 8.57717 3.87719C9.17597 5.20585 8.89585 6.78379 7.87044 7.82204C7.24338 8.45938 6.49039 8.81403 5.60633 8.89113C4.14918 9.01963 2.73829 8.21267 2.09323 6.87631C1.95189 6.5859 1.81311 6.12589 1.77199 5.81749C1.73087 5.52195 1.75143 4.86919 1.81054 4.60191C1.97759 3.83607 2.39906 3.1242 2.97472 2.63335C3.75598 1.96773 4.73769 1.65934 5.71684 1.77756Z" fill="white"/>
</svg>
