<svg width="13" height="13" viewBox="0 0 13 13" fill="none" xmlns="http://www.w3.org/2000/svg">
<path d="M7.3138 0.037652C6.76269 0.182412 6.29794 0.649707 6.15826 1.20335C6.13032 1.31509 6.12016 1.49541 6.12016 1.89413V2.43508L4.40082 2.44016L2.67894 2.44777L2.60021 2.50365C2.4326 2.62301 2.43768 2.55698 2.43768 4.42616V6.11756H1.89673C1.49801 6.11756 1.31769 6.12772 1.20595 6.15566C0.647226 6.29788 0.179932 6.76517 0.0377114 7.32389C-0.00800218 7.50167 -0.0130815 7.88769 0.0275528 8.07817C0.0986629 8.4134 0.342469 8.79689 0.61929 9.00514C0.807224 9.14482 0.901191 9.19307 1.12976 9.26926C1.28722 9.32005 1.37103 9.32767 1.87134 9.33783L2.43768 9.34799V11.0267C2.43768 12.901 2.43006 12.8197 2.61291 12.9416L2.69926 13H4.66748C6.58238 13 6.63571 12.9975 6.71698 12.9492C6.87444 12.8527 6.87952 12.8146 6.88967 11.9841L6.89475 11.2349L6.9684 11.0775C7.04205 10.915 7.21475 10.727 7.35443 10.6559C7.76585 10.4477 8.27632 10.6331 8.47949 11.0673C8.54552 11.2096 8.54552 11.2121 8.55822 11.9841C8.57346 12.8425 8.57346 12.8451 8.74362 12.9492C8.82234 12.9975 8.88584 13 10.7931 13C12.6775 13 12.7639 12.9975 12.835 12.9517C12.8731 12.9264 12.929 12.8705 12.9543 12.8324C13.0001 12.7613 13.0026 12.6749 13.0026 10.7905C13.0026 8.88324 13.0001 8.81974 12.9518 8.74102C12.8477 8.57086 12.8451 8.57086 11.9867 8.55562C11.2147 8.54292 11.2122 8.54292 11.0699 8.47689C10.6357 8.27372 10.4503 7.76325 10.6585 7.35183C10.7296 7.21215 10.9176 7.03945 11.0801 6.9658L11.2375 6.89215L11.9867 6.88707C12.8172 6.87692 12.8553 6.87184 12.9518 6.71438C13.0001 6.63311 13.0026 6.57978 13.0026 4.66489V2.69666L12.9442 2.61031C12.8223 2.42746 12.9036 2.43508 11.0293 2.43508H9.35059L9.34043 1.86874C9.33027 1.36843 9.32265 1.28462 9.27186 1.12716C9.19567 0.898592 9.14742 0.804625 9.00774 0.616692C8.79949 0.339869 8.416 0.0960636 8.08077 0.0249538C7.89537 -0.0131407 7.48141 -0.00806141 7.3138 0.037652ZM8.06299 0.857958C8.14934 0.898592 8.26108 0.977321 8.31949 1.04335C8.54044 1.28462 8.55822 1.36589 8.55822 2.22937C8.55822 2.89475 8.56076 2.92777 8.61409 3.02174C8.64965 3.08523 8.70806 3.13856 8.77409 3.17157C8.87568 3.21983 8.93155 3.22237 10.5595 3.22237H12.2407V4.66996V6.11756H11.7074C11.4153 6.11756 11.1156 6.13026 11.042 6.1455C10.7068 6.21661 10.3233 6.46041 10.115 6.73724C9.97026 6.93025 9.92455 7.02168 9.8509 7.2604C9.77217 7.50421 9.76709 7.92579 9.8382 8.16198C9.99566 8.68768 10.4147 9.1118 10.9455 9.27942C11.0547 9.31498 11.2096 9.32767 11.6642 9.33783L12.2407 9.34799V10.793V12.2381H10.7956H9.35059L9.34043 11.6591C9.33027 11.207 9.31758 11.0521 9.28202 10.9429C9.1144 10.4121 8.69028 9.99306 8.16458 9.8356C7.92839 9.76449 7.50681 9.76957 7.263 9.8483C7.02428 9.92195 6.93285 9.96766 6.73984 10.1124C6.46301 10.3207 6.21921 10.7042 6.1481 11.0394C6.13286 11.113 6.12016 11.4127 6.12016 11.7048V12.2381H4.67256H3.22497V10.5569C3.22497 8.92895 3.22243 8.87308 3.17417 8.77149C3.14116 8.70546 3.08783 8.64705 3.02433 8.61149C2.93037 8.55816 2.89735 8.55562 2.23196 8.55562C1.36849 8.55562 1.28722 8.53784 1.04595 8.31689C0.606592 7.91309 0.748812 7.17405 1.30753 6.95565C1.45229 6.89723 1.50055 6.89469 2.22689 6.882C2.94561 6.86676 2.9964 6.86422 3.06243 6.81596C3.10052 6.78803 3.15132 6.72454 3.17671 6.67628C3.22243 6.59248 3.22497 6.49343 3.22497 4.90615V3.22237H4.90875C6.49603 3.22237 6.59508 3.21983 6.67888 3.17411C6.72714 3.14872 6.79063 3.09792 6.81856 3.05983C6.86682 2.9938 6.86936 2.94301 6.88459 2.22429C6.89729 1.49795 6.89983 1.44969 6.95824 1.30494C7.1284 0.870656 7.64649 0.659865 8.06299 0.857958Z" fill="white"/>
</svg>
